<svg width="42" height="42" viewBox="0 0 42 42" fill="none" xmlns="http://www.w3.org/2000/svg">
<path d="M13.2 41.4C12.1666 41.4 11.2916 41.0417 10.575 40.325C9.85828 39.6083 9.49995 38.7333 9.49995 37.7C9.49995 36.7 9.86662 35.8333 10.6 35.1C11.3333 34.3667 12.2 34 13.2 34C14.2333 34 15.1083 34.3667 15.825 35.1C16.5416 35.8333 16.9 36.7167 16.9 37.75C16.9 38.75 16.5416 39.6083 15.825 40.325C15.1083 41.0417 14.2333 41.4 13.2 41.4ZM33.4 41.4C32.3666 41.4 31.4916 41.0417 30.775 40.325C30.0583 39.6083 29.7 38.7333 29.7 37.7C29.7 36.7 30.0666 35.8333 30.7999 35.1C31.5333 34.3667 32.4 34 33.4 34C34.4333 34 35.3083 34.3667 36.025 35.1C36.7416 35.8333 37.0999 36.7167 37.0999 37.75C37.0999 38.75 36.7416 39.6083 36.025 40.325C35.3083 41.0417 34.4333 41.4 33.4 41.4ZM11.25 8.25001L16.25 18.6H30.6L36.25 8.25001H11.25ZM9.34995 4.40001H38.4C39.3666 4.40001 40.1166 4.85835 40.65 5.77501C41.1833 6.69168 41.2 7.61668 40.7 8.55001L34.25 20.1C33.8833 20.7667 33.3749 21.325 32.7249 21.775C32.0749 22.225 31.3499 22.45 30.5499 22.45H15.5L13 27.15H37.4V31H12.7C11.1333 31 10.0083 30.4583 9.32495 29.375C8.64162 28.2917 8.64995 27.1 9.34995 25.8L12.45 20.1L4.99995 4.30001H0.949951V0.450012H7.49995L9.34995 4.40001ZM16.25 18.6H30.6H16.25Z" fill="black"/>
</svg>
